<svg xmlns="http://www.w3.org/2000/svg" width="400" height="300" viewBox="0 0 400 300" shape-rendering="geometricPrecision">
  <!-- no sky: the sky area is left transparent (no filled block) -->
  <path id="hill" d="M0 300 L0 200 Q120 150 210 195 T400 185 L400 300 Z" fill="#8bc48a"/>
  <path id="hill2" d="M0 300 L0 245 Q160 210 260 240 T400 235 L400 300 Z" fill="#6faf70"/>
  <circle id="sun" cx="315" cy="70" r="42" fill="#ffcf4d"/>
  <rect id="house" x="120" y="185" width="120" height="90" fill="#e7d7b8"/>
  <polygon id="roof" points="108,188 180,132 252,188" fill="#c0553f"/>
  <rect id="door" x="162" y="222" width="36" height="53" fill="#6b4a2b"/>
  <rect id="win" x="205" y="205" width="28" height="28" fill="#7fc9e0"/>
  <path id="ring" fill-rule="evenodd" fill="#9a6cc4"
        d="M60 100 a34 34 0 1 0 0.1 0 Z M60 118 a16 16 0 1 1 -0.1 0 Z"/>
  <!-- a little dog on the grass -->
  <g id="dog">
    <path id="dog-tail" d="M274 247 q-17 -4 -23 -18 q11 7 24 9 Z" fill="#a86a30"/>
    <ellipse id="dog-body" cx="300" cy="252" rx="30" ry="15" fill="#b3763b"/>
    <rect id="dog-legb" x="283" y="259" width="8" height="17" rx="3" fill="#9a642f"/>
    <rect id="dog-legf" x="315" y="259" width="8" height="17" rx="3" fill="#9a642f"/>
    <path id="dog-ear" d="M323 227 q-7 -15 4 -19 q5 10 2 21 Z" fill="#8a561f"/>
    <circle id="dog-head" cx="332" cy="238" r="14" fill="#b3763b"/>
    <ellipse id="dog-snout" cx="346" cy="243" rx="9" ry="6" fill="#c98b52"/>
    <circle id="dog-nose" cx="353" cy="242" r="2.6" fill="#3b2a1c"/>
    <circle id="dog-eye" cx="334" cy="234" r="2" fill="#3b2a1c"/>
  </g>
</svg>
